<?xml version="1.0" standalone="no"?>
<!DOCTYPE svg PUBLIC "-//W3C//DTD SVG 20010904//EN"
 "http://www.w3.org/TR/2001/REC-SVG-20010904/DTD/svg10.dtd">
<svg version="1.0" xmlns="http://www.w3.org/2000/svg"
 width="60.000000pt" height="60.000000pt" viewBox="0 0 60.000000 60.000000"
 preserveAspectRatio="xMidYMid meet">

<g transform="translate(0.000000,60.000000) scale(0.100000,-0.100000)"
fill="#000000" stroke="none">
<path d="M220 527 c-49 -16 -133 -102 -148 -153 -23 -78 -11 -149 35 -211 27
-38 78 -78 110 -88 20 -5 23 -3 23 19 0 21 -5 26 -25 26 -18 0 -32 11 -49 38
-28 44 -25 54 7 24 29 -27 68 -28 84 -3 14 22 8 31 -19 31 -11 0 -33 14 -50
30 -26 27 -29 35 -24 68 4 20 9 56 13 80 6 46 24 62 48 42 20 -17 133 -17 163
-1 35 19 53 7 51 -31 -2 -18 3 -43 9 -55 20 -37 14 -72 -17 -104 -16 -16 -38
-29 -49 -29 -28 0 -33 -10 -17 -34 8 -11 15 -37 15 -58 0 -21 2 -38 5 -38 19
0 68 35 97 70 80 93 77 215 -9 310 -65 72 -158 97 -253 67z"/>
</g>
</svg>
