<?xml version="1.0" standalone="no"?>
<!DOCTYPE svg PUBLIC "-//W3C//DTD SVG 20010904//EN"
 "http://www.w3.org/TR/2001/REC-SVG-20010904/DTD/svg10.dtd">
<svg version="1.0" xmlns="http://www.w3.org/2000/svg"
 width="48.000000pt" height="48.000000pt" viewBox="0 0 48.000000 48.000000"
 preserveAspectRatio="xMidYMid meet">

<g transform="translate(0.000000,48.000000) scale(0.100000,-0.100000)"
fill="#000000" stroke="none">
<path d="M57 394 c-17 -18 -1 -34 84 -87 50 -32 94 -57 99 -57 5 0 49 26 99
58 131 82 126 86 -95 90 -99 1 -183 -1 -187 -4z"/>
<path d="M340 264 c-46 -30 -91 -54 -100 -54 -8 0 -51 22 -95 50 -44 27 -86
50 -92 50 -18 0 -18 -201 -1 -218 17 -17 359 -17 376 0 13 13 18 229 5 227 -5
0 -46 -25 -93 -55z"/>
</g>
</svg>
